<svg xmlns="http://www.w3.org/2000/svg" viewBox="0 0 515.95 378.22"><defs><style>.cls-1{fill:#7f2021;}.cls-2{fill:#e8395c;}.cls-3{fill:#1d1d1b;}</style></defs><g id="Capa_2" data-name="Capa 2"><g id="Capa_1-2" data-name="Capa 1"><path class="cls-1" d="M261.58,280.28l-39-39.23a73.1,73.1,0,0,0,13.57-18.51l49.19,25.29A128.63,128.63,0,0,1,261.58,280.28Z"/><path class="cls-1" d="M236.43,155.93A73.13,73.13,0,0,0,223,137.33l39.23-39A128.35,128.35,0,0,1,285.8,131Z"/><path class="cls-2" d="M194.19,45.61,201.58,0A190.55,190.55,0,0,1,258.5,18.68l-21.12,41.1A144.7,144.7,0,0,0,194.19,45.61Z"/><path class="cls-2" d="M182.69,116.6,191.53,62a128,128,0,0,1,38.24,12.55l-25.28,49.19A72.69,72.69,0,0,0,182.69,116.6Z"/><path class="cls-1" d="M137.88,123.52,113,74.15a128.31,128.31,0,0,1,38.33-12.28l8.45,54.64A72.76,72.76,0,0,0,137.88,123.52Z"/><path class="cls-2" d="M.63,101.44A191.42,191.42,0,0,1,36.06,53.13L68.6,85.92a145.1,145.1,0,0,0-26.87,36.65h0Z"/><path class="cls-2" d="M56.51,130.17A128.43,128.43,0,0,1,80.32,97.72l39,39.23a73.34,73.34,0,0,0-13.57,18.51Z"/><path class="cls-1" d="M43.82,208.67A129.06,129.06,0,0,1,44,168.42l54.57,8.85a73.84,73.84,0,0,0-.08,22.94Z"/><path class="cls-2" d="M35.08,323.89A191.28,191.28,0,0,1,0,275.33L41.25,254.5a145,145,0,0,0,26.61,36.84Z"/><path class="cls-2" d="M79.66,279.63A128.83,128.83,0,0,1,56.09,247l49.37-24.93a73.15,73.15,0,0,0,13.44,18.61Z"/><path class="cls-1" d="M112.12,303.44l25.29-49.19a73,73,0,0,0,21.8,7.16L150.37,316A128.4,128.4,0,0,1,112.12,303.44Z"/><path class="cls-2" d="M200.22,378.22l-7.06-45.66a144.56,144.56,0,0,0,43.28-13.86L257.28,360A190.77,190.77,0,0,1,200.22,378.22Z"/><path class="cls-2" d="M190.61,316.13l-8.45-54.64a73.17,73.17,0,0,0,21.86-7L229,303.86A128.25,128.25,0,0,1,190.61,316.13Z"/><path class="cls-3" d="M145.82,189c0-14,10.51-25.33,25.63-25.33,14.31,0,24.73,10.51,24.73,26.93v3.51H161.74c1.1,4.3,5.1,7.91,12.11,7.91,3.4,0,9-1.51,11.81-4.11L192.37,208c-4.8,4.31-12.81,6.41-20.22,6.41C157.23,214.39,145.82,204.68,145.82,189Zm25.63-12.91c-6.71,0-9.31,4-9.91,7.5h19.92C181.06,180.15,178.56,176.05,171.45,176.05Z"/><path class="cls-3" d="M216.2,213.19l-19-48.36H213.4l11,30.64,10.91-30.64h16.32l-19,48.36Z"/><path class="cls-3" d="M253.14,189c0-14,10.52-25.33,25.63-25.33,14.32,0,24.73,10.51,24.73,26.93v3.51H269.06c1.1,4.3,5.11,7.91,12.12,7.91,3.4,0,9-1.51,11.81-4.11L299.7,208c-4.81,4.31-12.82,6.41-20.23,6.41C264.56,214.39,253.14,204.68,253.14,189Zm25.63-12.91c-6.7,0-9.31,4-9.91,7.5h19.92C288.38,180.15,285.88,176.05,278.77,176.05Z"/><path class="cls-3" d="M343.85,213.19V185.26c0-5.91-3.1-8-7.91-8a11.94,11.94,0,0,0-9.41,4.7v31.24H311.11V164.83h15.42v5.91c2.9-3.41,8.61-7.11,16.82-7.11,10.91,0,15.92,6.41,15.92,15.32v34.24Z"/><path class="cls-3" d="M373.68,200.17v-22h-8V164.83h8V151.62H389.1v13.21h9.81v13.32H389.1v17.72c0,2.8,1.6,4.9,4.21,4.9a6,6,0,0,0,3.9-1.2l3,11.62c-1.91,1.8-5.71,3.2-11.42,3.2C379,214.39,373.68,209.48,373.68,200.17Z"/><path class="cls-3" d="M409.83,213.19v-35h-8V164.83h8v-1.1c0-12,7.71-18.32,17.32-18.32,4.2,0,7.81.6,10.31,1.9l-3,11.51a7,7,0,0,0-4.11-1c-2.8,0-5.11,1.91-5.11,5.91v1.1h9.82v13.32h-9.82v35Zm31.63,0V146.41h15.42v66.78Z"/><path class="cls-3" d="M469.3,218.29a8.37,8.37,0,0,0,3.8.91c3.51,0,5.71-.7,6.61-2.71l1.1-2.6-19.32-49.06h16.22l11,30.64,10.91-30.64H516L494.13,220.1c-3.91,10.21-11.12,12.51-20.43,12.71a31.42,31.42,0,0,1-6.61-.8Z"/></g></g></svg>